<?xml version="1.0" encoding="utf-8"?>
<svg width="24" height="24" viewBox="0 0 24 24" fill="none" xmlns="http://www.w3.org/2000/svg">
  <g>
    <rect width="24" height="24" />
    <path id="Vector" d="M3 0C2.20435 0 1.44129 0.31607 0.87868 0.87868C0.31607 1.44129 0 2.20435 0 3L0 21C0 21.5523 0.447715 22 1 22L13 22C13.5523 22 14 21.5523 14 21L14 3C14 2.20435 13.6839 1.44129 13.1213 0.87868C12.5587 0.31607 11.7956 0 11 0L3 0L3 0ZM2.29289 2.29289C2.48043 2.10536 2.73478 2 3 2L11 2C11.2652 2 11.5196 2.10536 11.7071 2.29289C11.8946 2.48043 12 2.73478 12 3L12 20L2 20L2 3C2 2.73478 2.10536 2.48043 2.29289 2.29289L2.29289 2.29289Z" fill="#2A0267" fill-rule="evenodd" transform="translate(5 1)" />
    <path id="Vector" d="M3 0C2.20435 0 1.44129 0.316071 0.87868 0.87868C0.31607 1.44129 0 2.20435 0 3L0 9C0 9.79565 0.31607 10.5587 0.87868 11.1213C1.44129 11.6839 2.20435 12 3 12L5 12C5.55228 12 6 11.5523 6 11C6 10.4477 5.55228 10 5 10L3 10C2.73478 10 2.48043 9.89464 2.29289 9.70711C2.10536 9.51957 2 9.26522 2 9L2 3C2 2.73478 2.10536 2.48043 2.29289 2.29289C2.48043 2.10536 2.73478 2 3 2L5 2C5.55228 2 6 1.55229 6 1C6 0.447715 5.55228 0 5 0L3 0L3 0Z" fill="#2A0267" fill-rule="evenodd" transform="translate(1 11)" />
    <path id="Vector" d="M1 0C0.447716 0 0 0.447715 0 1C0 1.55229 0.447716 2 1 2L3 2C3.26522 2 3.51957 2.10536 3.70711 2.29289C3.89464 2.48043 4 2.73478 4 3L4 12C4 12.2652 3.89464 12.5196 3.70711 12.7071C3.51957 12.8946 3.26522 13 3 13L1 13C0.447716 13 0 13.4477 0 14C0 14.5523 0.447716 15 1 15L3 15C3.79565 15 4.55871 14.6839 5.12132 14.1213C5.68393 13.5587 6 12.7957 6 12L6 3C6 2.20435 5.68393 1.44129 5.12132 0.87868C4.55871 0.316071 3.79565 0 3 0L1 0L1 0Z" fill="#2A0267" fill-rule="evenodd" transform="translate(17 8)" />
    <path id="Vector" d="M0 1C0 0.447715 0.447715 0 1 0L5 0C5.55228 0 6 0.447715 6 1C6 1.55229 5.55228 2 5 2L1 2C0.447715 2 0 1.55229 0 1L0 1Z" fill="#2A0267" fill-rule="evenodd" transform="translate(9 5)" />
    <path id="Vector" d="M0 1C0 0.447715 0.447715 0 1 0L5 0C5.55228 0 6 0.447715 6 1C6 1.55229 5.55228 2 5 2L1 2C0.447715 2 0 1.55229 0 1L0 1Z" fill="#2A0267" fill-rule="evenodd" transform="translate(9 9)" />
    <path id="Vector" d="M0 1C0 0.447715 0.447715 0 1 0L5 0C5.55228 0 6 0.447715 6 1C6 1.55229 5.55228 2 5 2L1 2C0.447715 2 0 1.55229 0 1L0 1Z" fill="#2A0267" fill-rule="evenodd" transform="translate(9 13)" />
    <path id="Vector" d="M0 1C0 0.447716 0.447715 0 1 0L5 0C5.55228 0 6 0.447716 6 1C6 1.55228 5.55228 2 5 2L1 2C0.447715 2 0 1.55228 0 1L0 1Z" fill="#2A0267" fill-rule="evenodd" transform="translate(9 17)" />
  </g>
</svg>