<?xml version="1.0" encoding="utf-8"?>
<svg width="24" height="24" viewBox="0 0 24 24" fill="none" xmlns="http://www.w3.org/2000/svg">
  <g>
    <rect width="24" height="24" />
    <path id="Vector" d="M10.7014 1.70711C11.092 1.31658 11.092 0.683417 10.7014 0.292892C10.3109 -0.0976305 9.67774 -0.0976305 9.28721 0.292892L0.914214 8.66589C0.328853 9.25125 0 10.0452 0 10.873C0 11.7008 0.328853 12.4947 0.914214 13.0801C1.49957 13.6655 2.29349 13.9943 3.12132 13.9943C3.94915 13.9943 4.74307 13.6655 5.32843 13.0801L13.7014 4.70711C14.092 4.31658 14.092 3.68342 13.7014 3.29289C13.3109 2.90237 12.6777 2.90237 12.2872 3.29289L3.91421 11.6659C3.70392 11.8762 3.41871 11.9943 3.12132 11.9943C2.82393 11.9943 2.53872 11.8762 2.32843 11.6659C2.11814 11.4556 2 11.1704 2 10.873C2 10.5756 2.11814 10.2904 2.32843 10.0801L10.7014 1.70711L10.7014 1.70711Z" fill="#2A0267" fill-rule="evenodd" transform="translate(2.006 8)" />
    <path id="Vector" d="M4.29289 0.292892C4.68342 -0.0976305 5.31658 -0.0976305 5.70711 0.292892C6.09763 0.683416 6.09763 1.31658 5.70711 1.70711L1.70711 5.70711C1.31658 6.09763 0.683416 6.09763 0.292892 5.70711C-0.0976315 5.31658 -0.0976315 4.68342 0.292892 4.29289L4.29289 0.292892L4.29289 0.292892Z" fill="#2A0267" fill-rule="evenodd" transform="translate(17 10)" />
    <path id="Vector" d="M1.00683 2.31266e-05C0.590662 -0.00279987 0.216254 0.25242 0.0667744 0.640822C-0.0827069 1.02922 0.0239935 1.4696 0.334673 1.74651L1.25467 2.56651L1.75502 2.00515L1.25467 2.56652L1.25661 2.56824C1.80433 3.05388 2.2429 3.65009 2.54341 4.31757C2.84383 4.98486 2.99946 5.70822 3.00004 6.44L3.00004 8.04C3.00004 8.30522 3.1054 8.55957 3.29293 8.74711L5.29293 10.7471C5.48047 10.9346 5.73482 11.04 6.00004 11.04L7.17204 11.04C7.43716 11.0402 7.69138 11.1455 7.87883 11.333L9.79293 13.2471C10.1835 13.6376 10.8166 13.6376 11.2071 13.2471C11.5976 12.8566 11.5976 12.2234 11.2071 11.8329L9.29326 9.91899L9.29315 9.91889C8.73069 9.35631 7.96779 9.04017 7.17225 9.04L6.41426 9.04L5.00004 7.62578L5.00004 6.43933C4.99936 5.42469 4.78365 4.42171 4.36711 3.49652C4.12899 2.9676 3.82831 2.47097 3.47259 2.0168L4.53126 2.02398L4.53147 2.02398C5.84556 2.03261 7.10341 2.55822 8.03293 3.48711L8.03314 3.48731L10 5.45422L10 6.21221C10.0002 7.00775 10.3164 7.77064 10.8789 8.33311L10.879 8.33321L12.7929 10.2471C13.1834 10.6376 13.8166 10.6376 14.2071 10.2471C14.5976 9.85658 14.5976 9.22342 14.2071 8.83289L12.2931 6.91889L12.293 6.91879C12.1056 6.73134 12.0002 6.47711 12 6.212L12 5.04C12 4.77478 11.8946 4.52043 11.7071 4.33289L9.44715 2.07289L9.44694 2.07269C8.14562 0.77212 6.38459 0.0361632 4.54482 0.0240232L4.54461 0.0240217L1.00683 2.31266e-05L1.00683 2.31266e-05Z" fill="#2A0267" fill-rule="evenodd" transform="translate(8 1.96)" />
  </g>
</svg>