<?xml version="1.0" encoding="utf-8"?>
<svg width="45.702" height="45.703" viewBox="0 0 45.702 45.703" fill="none" xmlns="http://www.w3.org/2000/svg">
  <g>
    <path d="M40.7025 0C43.4643 0 45.7025 2.2382 45.7025 5L45.7025 40.7025C45.7025 43.4643 43.4643 45.7025 40.7025 45.7025L5 45.7025C2.2382 45.7025 0 43.4643 0 40.7025L0 5C0 2.2382 2.2382 0 5 0L40.7025 0Z" fill="#C9FFBF" />
    <g transform="translate(7.617 7.617)">
      <g transform="translate(0.28 0)">
        <g>
          <path d="M29.767 5.89988C29.6629 5.37638 29.5178 5.11044 29.5178 5.11044C29.4732 4.96911 29.3523 4.86497 29.2063 4.8417C29.0594 4.81843 28.9125 4.87984 28.826 5.00071L28.4374 5.54467L26.242 8.62798C25.818 9.22122 24.9524 9.32905 24.308 8.86881L20.6111 6.22349C19.9676 5.76325 19.7891 4.90871 20.214 4.31547L22.4623 1.15777L22.8314 0.642666C22.917 0.522697 22.9281 0.36369 22.8602 0.233545C22.7914 0.102448 22.6556 0.0215165 22.5078 0.0234208C22.5078 0.0234208 22.1592 -0.0360876 21.6013 0.0346084C20.1982 0.214086 18.8313 0.797983 17.6876 1.80034C16.0744 3.21367 15.2264 5.17649 15.179 7.16449C15.1764 7.26759 15.1903 7.4299 15.2079 7.63521L15.2079 7.63523C15.2926 8.62426 15.4628 10.6111 14.2901 11.7838C12.874 13.2 0.910077 25.1629 0.910077 25.1629C-0.303359 26.3773 -0.303359 28.3448 0.910077 29.5582C2.12441 30.7716 4.09193 30.7716 5.30531 29.5582L18.6854 16.1781C19.8086 15.0549 22.9226 14.722 23.54 14.6383C24.9236 14.4514 26.2681 13.8694 27.3969 12.88C29.449 11.0818 30.2636 8.39644 29.767 5.89988L29.767 5.89988ZM2.1012 28.368C1.51915 27.7859 1.51915 26.844 2.1012 26.2619C2.68236 25.6808 3.62515 25.6799 4.20631 26.2619C4.78836 26.8431 4.78836 27.7859 4.20631 28.368C3.62515 28.9492 2.6823 28.9492 2.1012 28.368L2.1012 28.368Z" fill="#0B840D" fill-rule="evenodd" transform="translate(0 0)" />
        </g>
      </g>
    </g>
  </g>
</svg>