<?xml version="1.0" encoding="utf-8"?>
<svg width="35" height="35" viewBox="0 0 35 35" fill="none" xmlns="http://www.w3.org/2000/svg">
  <g>
    <g transform="translate(4.74 1.823)">
      <path d="M11.2263 1.58422e-06L14.2946 1.58422e-06C15.6049 -4.04874e-05 16.6975 -6.96061e-05 17.5649 0.116539C18.4804 0.239637 19.307 0.510406 19.9711 1.17463C20.6354 1.83886 20.9062 2.66544 21.0293 3.58097C21.1225 4.27381 21.1412 5.11034 21.145 6.08672C22.231 6.29111 23.1601 6.67611 23.9191 7.4351C24.7969 8.3129 25.1745 9.41812 25.3509 10.7308C25.5208 11.9951 25.5208 13.6026 25.5208 15.597L25.5208 17.2757C25.5208 18.9798 25.5208 20.3424 25.4062 21.4521C25.2875 22.5998 25.0391 23.5692 24.4863 24.4637C23.9334 25.3582 23.1774 26.0139 22.204 26.6333C21.2629 27.232 20.0441 27.8415 18.5198 28.6036L18.467 28.63C18.3839 28.6716 18.3018 28.7127 18.2206 28.7532C15.9002 29.9145 14.399 30.6657 12.7604 30.6657C11.1218 30.6657 9.62067 29.9145 7.30024 28.7532C7.2191 28.7127 7.13697 28.6716 7.05378 28.63L7.00101 28.6036C5.47683 27.8415 4.25796 27.232 3.31679 26.6333C2.34341 26.0139 1.58744 25.3582 1.03456 24.4637C0.481675 23.5692 0.233364 22.5998 0.1147 21.4521C-2.41393e-05 20.3424 -1.30884e-05 18.9799 7.31579e-07 17.2759L7.31579e-07 15.5968C-2.7673e-05 13.6025 -5.05648e-05 11.9951 0.169927 10.7308C0.346414 9.41812 0.723962 8.3129 1.60176 7.4351C2.36075 6.67611 3.2898 6.29111 4.37592 6.08672C4.37967 5.11034 4.39839 4.27381 4.49154 3.58097C4.61463 2.66544 4.8854 1.83886 5.54963 1.17463C6.21386 0.510406 7.04044 0.239637 7.95597 0.116539C8.82335 -6.96061e-05 9.91594 -4.04874e-05 11.2263 1.58422e-06L11.2263 1.58422e-06ZM9.76359 5.83333L15.7572 5.83333C16.9612 5.83332 18.0243 5.83331 18.956 5.8707C18.9502 5.02166 18.93 4.38384 18.8614 3.87245C18.7708 3.19948 18.6145 2.91148 18.4244 2.72143C18.2344 2.53138 17.9464 2.37501 17.2734 2.28454C16.569 2.18984 15.6246 2.1875 14.2188 2.1875L11.3021 2.1875C9.89625 2.1875 8.95188 2.18984 8.24744 2.28454C7.57448 2.37501 7.28646 2.53138 7.09643 2.72143C6.90638 2.91148 6.75001 3.19948 6.65954 3.87245C6.59078 4.38384 6.57071 5.02166 6.56488 5.8707C7.49652 5.83331 8.55955 5.83332 9.76359 5.83333L9.76359 5.83333ZM5.18893 8.17126C4.11884 8.31513 3.55217 8.57828 3.14856 8.98189C2.74495 9.38551 2.48179 9.95218 2.33793 11.0223C2.18982 12.1238 2.1875 13.5838 2.1875 15.6771L2.1875 17.2166C2.1875 18.9932 2.18886 20.243 2.29061 21.2272C2.38974 22.1861 2.57704 22.7986 2.89536 23.3136C3.21369 23.8287 3.67777 24.2702 4.49111 24.7876C5.32583 25.3187 6.44306 25.8789 8.03206 26.6734C10.6906 28.0026 11.7023 28.4782 12.7604 28.4782C13.8186 28.4782 14.8302 28.0026 17.4888 26.6734C19.0778 25.8789 20.195 25.3187 21.0298 24.7876C21.8431 24.2702 22.3071 23.8287 22.6255 23.3136C22.9438 22.7986 23.1311 22.1861 23.2302 21.2272C23.332 20.243 23.3333 18.9932 23.3333 17.2166L23.3333 15.6771C23.3333 13.5838 23.331 12.1238 23.183 11.0223C23.039 9.95218 22.776 9.38551 22.3723 8.98189C21.9686 8.57828 21.4021 8.31513 20.3319 8.17126C19.2303 8.02317 17.7704 8.02083 15.6771 8.02083L9.84375 8.02083C7.75044 8.02083 6.29048 8.02317 5.18893 8.17126L5.18893 8.17126ZM11.3218 12.4682C11.5729 12.1404 12.0288 11.6667 12.7604 11.6667C13.4921 11.6667 13.9479 12.1404 14.1991 12.4682C14.4387 12.7811 14.68 13.2143 14.9275 13.6585C14.9387 13.6786 14.95 13.6989 14.9612 13.719L15.1047 13.9762C15.1379 14.0359 15.164 14.0828 15.1869 14.1229C15.2268 14.1323 15.2731 14.1428 15.331 14.1559L15.6094 14.2189C15.6323 14.224 15.6551 14.2293 15.678 14.2344C16.156 14.3424 16.6311 14.4498 16.9957 14.5935C17.3985 14.7522 17.9444 15.0612 18.1546 15.7378C18.3614 16.4023 18.1005 16.9654 17.8728 17.3272C17.662 17.662 17.3416 18.0365 17.0136 18.4199C16.9988 18.4371 16.9839 18.4545 16.9692 18.4718L16.7793 18.6938C16.729 18.7526 16.6912 18.797 16.6593 18.8354C16.6635 18.8883 16.6695 18.95 16.6775 19.0326L16.7062 19.3288C16.7084 19.3514 16.7106 19.3738 16.7128 19.3964C16.7627 19.9096 16.8108 20.4056 16.7931 20.8024C16.7746 21.2183 16.6747 21.848 16.1101 22.2766C15.5276 22.7188 14.8843 22.6225 14.4764 22.5056C14.1005 22.398 13.6564 22.1932 13.2091 21.9871C13.1877 21.9772 13.1663 21.9675 13.1448 21.9575L12.8842 21.8375C12.8354 21.8151 12.7954 21.7967 12.7604 21.7808C12.7254 21.7967 12.6855 21.8151 12.6366 21.8375L12.376 21.9575C12.3546 21.9675 12.3331 21.9772 12.3117 21.9871C11.8644 22.1932 11.4202 22.398 11.0444 22.5056C10.6365 22.6225 9.99323 22.7188 9.41071 22.2766C8.84611 21.848 8.74625 21.2183 8.72773 20.8024C8.71006 20.4057 8.75821 19.9098 8.80803 19.3967L8.80806 19.3964C8.81024 19.3738 8.81245 19.3514 8.81463 19.3288L8.84332 19.0326C8.85133 18.95 8.85728 18.8883 8.86164 18.8354C8.8297 18.797 8.7918 18.7526 8.74151 18.6938L8.55171 18.4718C8.53687 18.4545 8.52202 18.4371 8.5072 18.4198C8.1792 18.0365 7.85883 17.662 7.64803 17.3272C7.42025 16.9654 7.15945 16.4023 7.36613 15.7378C7.57651 15.0612 8.12236 14.7522 8.52507 14.5935C8.88977 14.4498 9.36488 14.3424 9.84292 14.2344C9.86577 14.2293 9.88852 14.224 9.91142 14.2189L10.1898 14.1559C10.2477 14.1428 10.2941 14.1323 10.3339 14.1229C10.3568 14.0828 10.3829 14.0359 10.4161 13.9762L10.5596 13.719C10.5709 13.6989 10.5821 13.6786 10.5933 13.6585C10.8408 13.2143 11.0822 12.7811 11.3218 12.4682L11.3218 12.4682ZM12.7604 14.2691C12.6757 14.4158 12.5813 14.5848 12.4702 14.7841L12.3269 15.0413C12.3168 15.0595 12.306 15.0793 12.2943 15.1006C12.1799 15.31 11.9901 15.6568 11.674 15.8969C11.3511 16.142 10.9627 16.2263 10.7357 16.2756C10.7129 16.2805 10.6918 16.2851 10.6725 16.2894L10.3941 16.3524C10.1386 16.4103 9.93052 16.4574 9.75261 16.5022C9.8684 16.6445 10.0186 16.8214 10.2142 17.0501L10.404 17.2721C10.4175 17.2878 10.4322 17.3047 10.4476 17.3227C10.6051 17.5039 10.8592 17.7968 10.9767 18.1746C11.093 18.5481 11.0529 18.9327 11.0276 19.1753C11.025 19.1995 11.0227 19.2223 11.0206 19.2436L10.9919 19.5398C10.9654 19.8142 10.9446 20.0334 10.9309 20.2116C11.0829 20.1447 11.2557 20.0651 11.461 19.9706L11.7218 19.8505C11.7397 19.8422 11.7594 19.833 11.7806 19.823C11.9898 19.7243 12.354 19.5526 12.7604 19.5526C13.1669 19.5526 13.531 19.7243 13.7403 19.823C13.7614 19.833 13.7811 19.8422 13.799 19.8505L14.0598 19.9706C14.2651 20.0651 14.4379 20.1447 14.5899 20.2116C14.5762 20.0334 14.5555 19.8142 14.5289 19.5398L14.5002 19.2436C14.4982 19.2224 14.4958 19.1995 14.4932 19.1753L14.4931 19.1746C14.4679 18.932 14.428 18.5477 14.5441 18.1746C14.6616 17.7968 14.9157 17.5039 15.0732 17.3227C15.0888 17.3047 15.1034 17.2878 15.1168 17.2721L15.3067 17.0501C15.5022 16.8214 15.6524 16.6445 15.7682 16.5022C15.5903 16.4574 15.3822 16.4103 15.1267 16.3524L14.8483 16.2894C14.8291 16.2851 14.8079 16.2805 14.7852 16.2756C14.5581 16.2263 14.1698 16.142 13.8469 15.8969C13.5307 15.6568 13.341 15.31 13.2265 15.1006C13.2148 15.0793 13.204 15.0595 13.194 15.0413L13.0506 14.7841C12.9395 14.5848 12.8451 14.4158 12.7604 14.2691L12.7604 14.2691Z" fill="#959595" fill-rule="evenodd" transform="translate(-0 -0)" />
    </g>
  </g>
</svg>