<?xml version="1.0" encoding="utf-8"?>
<svg width="41" height="97" viewBox="0 0 41 97" fill="none" xmlns="http://www.w3.org/2000/svg">
  <path d="M8.62926 70.3125L8.62926 58.1676Q8.62926 53.1072 10.6268 47.8871Q12.6243 42.6669 15.8203 38.1658Q19.0163 33.6648 22.532 30.7884L33.6115 36.8608Q30.7351 41.5483 29.0305 46.6087Q27.326 51.669 27.3793 58.1143L27.3793 70.3125L8.62926 70.3125ZM35.3693 70.3125L35.3693 58.1676Q35.3693 53.1072 37.3668 47.8871Q39.3643 42.6669 42.5604 38.1658Q45.7564 33.6648 49.272 30.7884L60.3516 36.8608Q57.4751 41.5483 55.7706 46.6087Q54.066 51.669 54.1193 58.1143L54.1193 70.3125L35.3693 70.3125Z" transform="" fill="#3B82F6" />
</svg>